# xmcd
#
# Track frame offsets: 
#        150
#        32331
#        52403
#        75376
#        111094
#        127547
#        163181
#        178052
#        191384
#        206643
#
# Disc length: 2964 seconds
#
# Revision: 1
# Processed by: cddbd v1.5.2PL0 Copyright (c) Steve Scherf et al.
# Submitted via: ExactAudioCopy v1.0b3
#
DISCID=7c0b920a
DTITLE=Various Artist - Modern CD013  Cool Jazz - Modern Jazz Quartet 1953-55
DYEAR=1953
DGENRE=Jazz
TTITLE0=Modern Jazz Quartet - Ralph's New Blues
TTITLE1=Modern Jazz Quartet - All Of You
TTITLE2=Modern Jazz Quartet - I'll Remember April
TTITLE3=Modern Jazz Quartet - Gershwin Medley
TTITLE4=Modern Jazz Quartet - Concorde
TTITLE5=Modern Jazz Quartet - Softly As In A Morning Sunrise
TTITLE6=Sonny Rollins with The Modern Jazz Quartet - In A Sentimental 
TTITLE6=Mood
TTITLE7=Sonny Rollins with The Modern Jazz Quartet - The Stopper
TTITLE8=Sonny Rollins with The Modern Jazz Quartet - Almost Like Being
TTITLE8=In Love
TTITLE9=Sonny Rollins with The Modern Jazz Quartet - No Moe
EXTD=YEAR: 2008
EXTT0=
EXTT1=
EXTT2=
EXTT3=
EXTT4=
EXTT5=
EXTT6=
EXTT7=
EXTT8=
EXTT9=
PLAYORDER=
